<svg t="1600672946501" class="icon" viewBox="0 0 1024 1024" version="1.1" xmlns="http://www.w3.org/2000/svg" p-id="58445" width="200" height="200"><path d="M748.676129 429.667097C698.632258 257.32129 479.050323 247.824516 401.341935 381.852903c-43.437419-52.686452-158.637419-19.15871-158.637419 59.870968-151.205161 22.709677-160.784516 237.006452-62.430968 266.900645l611.261936-1.156129s111.814194 0.082581 111.814193-136.423226c-0.082581-79.112258-43.272258-162.849032-154.673548-141.378064z" fill="#F0F9FF" p-id="58446"></path><path d="M623.649032 599.948387h-24.526451v-32.701935c0-35.592258-27.912258-65.651613-63.421936-66.56-36.913548-0.990968-67.138065 28.572903-67.138064 65.238709v34.023226h-24.526452c-7.514839 0-13.625806 6.110968-13.625806 13.625807v99.509677h206.864516V613.574194c0-7.514839-6.110968-13.625806-13.625807-13.625807z m-120.650322-28.242581c0-20.48 13.790968-37.07871 30.885161-37.078709 17.011613 0 30.885161 16.59871 30.885161 37.078709v28.242581h-61.770322v-28.242581z" fill="#D4E8FC" p-id="58447"></path><path d="M553.372903 647.349677c0-10.735484-8.753548-19.489032-19.489032-19.489032-10.735484 0-19.489032 8.753548-19.489032 19.489032 0 7.184516 3.963871 13.543226 9.744516 16.846452V687.896774c0 4.541935 3.716129 8.258065 8.258064 8.258065h2.972904c4.541935 0 8.258065-3.716129 8.258064-8.258065v-23.618064c5.780645-3.385806 9.744516-9.661935 9.744516-16.929033z" fill="#FFFFFF" p-id="58448"></path><path d="M668.242581 699.127742h41.290322V550.565161h-33.858064c-7.597419 0-13.708387-6.193548-13.625807-13.790967l0.165162-20.48c0.082581-7.514839 6.110968-13.543226 13.625806-13.543226h81.92c7.514839 0 13.625806 6.110968 13.625806 13.625806v182.668387H804.335484c7.514839 0 13.625806 6.110968 13.625806 13.625807v0.330322H654.616774v-0.330322c0-7.432258 6.110968-13.543226 13.625807-13.543226zM233.455484 685.419355h94.72v23.12258h57.64129v-23.12258h15.194839c7.514839 0 13.625806-6.110968 13.625806-13.625807V654.864516c0-7.514839-6.110968-13.625806-13.625806-13.625806h-15.194839V516.459355c0-7.514839-6.110968-13.625806-13.625806-13.625807h-54.916129c-4.707097 0-9.00129 2.394839-11.561291 6.35871L222.637419 640.660645c-1.899355 2.972903-2.807742 6.35871-2.807742 9.827097v21.305806c0 7.514839 6.110968 13.625806 13.625807 13.625807z m74.900645-92.242581c7.267097-13.708387 14.203871-27.829677 20.810323-41.538064h1.403871c-0.660645 15.36-2.394839 38.565161-2.394839 54.007742v35.674838h-49.300645l29.48129-48.144516zM307.034839 454.44129l-9.827097 8.423226-11.726452 9.992258-15.690322-18.415484 11.56129-9.909677 10.322581-8.836129c-6.606452-3.303226-14.203871-3.963871-21.305807-1.899355-14.12129 4.046452-22.792258 17.754839-21.058064 31.95871l-109.832258 93.316129c-4.707097-1.734194-9.909677-2.312258-15.27742-1.403871-16.103226 2.807742-26.83871 18.085161-24.113548 34.105806l0.082581 0.247742 24.939354-16.929032 13.625807 20.067097-24.856774 16.846451c6.110968 3.716129 13.295484 5.12 20.314838 3.881291 14.864516-2.56 25.104516-15.772903 24.443871-30.389678l111.649033-95.050322c5.202581 1.486452 10.818065 1.651613 16.350967 0 15.525161-4.376774 24.526452-20.48 20.39742-36.005162z" fill="#D4E8FC" p-id="58449"></path><path d="M158.802581 565.264516l-1.23871-1.486451c-2.147097-2.56-1.816774-6.276129 0.660645-8.423226l79.36-67.550968c2.56-2.147097 6.276129-1.816774 8.423226 0.660645l1.23871 1.486452c2.147097 2.56 1.816774 6.276129-0.660646 8.423226l-79.36 67.550967c-2.477419 2.229677-6.276129 1.899355-8.423225-0.660645z" fill="#FFFFFF" opacity=".5" p-id="58450"></path><path d="M118.338065 708.541935h805.904516v4.541936H118.338065z" fill="#D4E8FC" p-id="58451"></path><path d="M771.138065 396.221935c-6.44129-1.816774-12.469677-4.707097-17.83742-8.588387l0.247742-11.643871c0.082581-5.037419-3.385806-9.414194-8.340645-10.405161l-11.396129-2.312258c-2.56-6.110968-4.046452-12.717419-4.376774-19.323871l9.249032-7.019355c3.963871-3.055484 5.285161-8.505806 2.972903-13.047742l-5.285161-10.32258c3.220645-5.863226 7.349677-11.065806 12.387097-15.525162l11.230967 2.807742c4.872258 1.23871 9.909677-1.23871 12.056775-5.780645l4.789677-10.570322c3.303226-0.578065 6.606452-0.825806 9.909677-0.825807 3.385806 0 6.689032 0.330323 9.909678 0.825807l4.789677 10.570322c2.064516 4.541935 7.184516 7.019355 12.056774 5.780645l11.230968-2.807742c4.954839 4.376774 9.166452 9.661935 12.387097 15.525162l-5.285161 10.32258c-2.312258 4.459355-0.990968 9.992258 2.972903 13.047742l9.249032 7.019355c-0.330323 6.689032-1.816774 13.212903-4.376774 19.323871l-11.396129 2.312258c-4.954839 0.990968-8.423226 5.367742-8.340645 10.405161l0.247742 11.643871c-5.367742 3.88129-11.47871 6.771613-17.83742 8.588387l-8.918709-7.432258c-3.88129-3.220645-9.496774-3.220645-13.378065 0l-8.918709 7.432258z m15.607741-31.710967c12.965161 0 23.452903-10.487742 23.452904-23.452903s-10.487742-23.452903-23.452904-23.452904-23.452903 10.487742-23.452903 23.452904c-0.082581 12.882581 10.405161 23.452903 23.452903 23.452903z m0 0" fill="#E9F6FF" p-id="58452"></path><path d="M612.252903 386.807742c-3.716129-2.807742-4.872258-7.927742-2.725161-12.139355L614.4 365.006452c-2.972903-5.450323-6.854194-10.322581-11.56129-14.451613l-10.487742 2.64258c-4.541935 1.156129-9.249032-1.156129-11.230968-5.367742l-4.459355-9.827096c-2.972903-0.495484-6.110968-0.825806-9.249032-0.825807-3.055484 0-6.193548 0.247742-9.249032 0.825807l-4.459355 9.827096c-1.981935 4.294194-6.689032 6.523871-11.230968 5.367742l-10.487742-2.64258c-4.624516 4.129032-8.505806 9.00129-11.56129 14.451613l4.872258 9.661935c2.147097 4.211613 0.990968 9.249032-2.807742 12.139355l-8.588387 6.523871c0.330323 6.193548 1.651613 12.304516 4.129032 18.002581l10.570323 2.229677c4.624516 0.908387 7.845161 5.037419 7.76258 9.744516l-0.247742 10.818065c5.037419 3.633548 10.652903 6.35871 16.59871 8.010322l-0.330323 1.403871 10.983226 2.807742 0.743226-2.725161-9.992258-2.56 6.936774-5.780645c3.633548-2.972903 8.836129-2.972903 12.469678 0l8.340645 6.936774c5.945806-1.651613 11.56129-4.376774 16.598709-8.010323l-0.247741-10.818064c-0.082581-4.707097 3.138065-8.753548 7.76258-9.744516l10.570323-2.229678c2.394839-5.698065 3.79871-11.809032 4.129032-18.00258l-8.423226-6.606452z m-44.84129 25.765161c-12.056774 0-21.883871-9.827097-21.883871-21.883871s9.827097-21.883871 21.883871-21.883871 21.883871 9.827097 21.883871 21.883871-9.744516 21.883871-21.883871 21.883871zM678.647742 434.374194l2.312258-4.541936c-1.403871-2.56-3.220645-4.789677-5.367742-6.771613l-2.725161 0.660645-3.633549-4.211613-2.147096 1.899355 2.64258 3.055484c-1.816774 0-3.468387-0.908387-4.211613-2.56l-2.064516-4.624516c-1.403871-0.247742-2.807742-0.412903-4.294193-0.412903-1.486452 0-2.890323 0.082581-4.294194 0.412903l-2.064516 4.624516c-0.908387 1.981935-3.138065 3.055484-5.202581 2.56l-4.872258-1.23871c-2.147097 1.899355-3.963871 4.211613-5.367742 6.771613l2.312258 4.541936c0.990968 1.981935 0.412903 4.376774-1.32129 5.698064l-4.046452 3.055484c0.165161 2.890323 0.825806 5.780645 1.899355 8.423226l4.954839 0.990968c2.147097 0.412903 3.633548 2.394839 3.633548 4.541935l-0.08258 5.03742c2.394839 1.734194 4.954839 2.972903 7.76258 3.716129l3.881291-3.220646c1.651613-1.403871 4.129032-1.403871 5.780645 0l3.88129 3.220646c2.807742-0.825806 5.450323-2.064516 7.762581-3.716129l-0.082581-5.03742c-0.082581-2.229677 1.486452-4.129032 3.633549-4.541935l4.954838-0.990968c1.156129-2.642581 1.734194-5.532903 1.899355-8.423226l-4.046451-3.055484c-1.981935-1.569032-2.477419-3.963871-1.486452-5.863225zM658.993548 452.046452c-5.615484 0-10.24-4.541935-10.24-10.24 0-5.615484 4.541935-10.24 10.24-10.24 5.615484 0 10.24 4.541935 10.24 10.24-0.082581 5.615484-4.624516 10.24-10.24 10.24zM637.246761 386.925006l2.1248-1.835767 7.448774 8.625548-2.125625 1.835768zM622.315355 369.634271l2.125626-1.834116 7.446296 8.626374-2.125625 1.834942z" fill="#FFFFFF" p-id="58453"></path><path d="M681.875819 438.575071l2.126452-1.83329 3.882942 4.503122-2.127278 1.833291zM652.148439 404.101781l2.125626-1.834942 7.446296 8.6272-2.125626 1.834116zM607.481394 352.469058l2.125625-1.834942 7.447123 8.626374-2.125626 1.834942zM640.682942 466.242065l0.700284-2.718555 3.998555 1.028955-0.700284 2.71938zM618.748697 460.564645l0.700284-2.71938 11.036077 2.842425-0.700284 2.719381zM574.616774 449.202374l0.700284-2.71938 11.035252 2.842425-0.699458 2.718555zM596.682323 454.883097l0.700283-2.718555 11.036078 2.842426-0.700284 2.718555z" fill="#FFFFFF" p-id="58454"></path></svg>