<svg t="1600672328475" class="icon" viewBox="0 0 1101 1024" version="1.1" xmlns="http://www.w3.org/2000/svg" p-id="54272" width="200" height="200"><path d="M65.533192 146.244817L148.636848 229.353978a37.849462 37.849462 0 0 0 53.528774-53.528774l-44.879828-44.879828a20.188215 20.188215 0 0 1 34.188388-17.573161l36.852989 36.852989C303.7233 100.544688 394.396848 71.569892 491.946612 71.569892c19.356903 0 38.444043 1.139613 57.189849 3.35828 186.368 18.509075 350.675957 145.975054 404.711226 334.424086 33.511226 116.862624 18.630194 236.312774-32.861592 337.490581l75.941162 73.331613a42.897892 42.897892 0 1 1-59.595699 61.715268l-67.859269-65.530494a37.854968 37.854968 0 0 0-49.465806 57.162322l3.539957 3.413334 11.935655 12.227441a20.430452 20.430452 0 0 1-1.871827 30.235526h-25.154065a20.40843 20.40843 0 0 1-1.695656-1.513978l-14.165333-14.170839A475.714065 475.714065 0 0 1 771.641751 919.397849H217.674268c-2.036989-1.447914-4.051957-2.917849-6.055914-4.39329-117.666409-84.947957-194.053505-222.009806-194.053506-376.622796 0-91.113978 26.524903-176.116989 72.390194-247.967655L12.571472 213.030538a42.897892 42.897892 0 0 1 52.96172-66.780215z" fill="#F0F2F5" p-id="54273"></path><path d="M192.316504 324.437333L183.012418 352.344086l-8.968258-26.91028L143.147988 315.138753l29.899699-9.970237L183.012418 275.268817l10.300559 30.896172L220.223257 315.138753l-27.906753 9.29858z" fill="#FFFFFF" p-id="54274"></path><path d="M22.029708 935.913978a11.010753 11.010753 0 0 1 0-22.021505h864.360603a11.010753 11.010753 0 0 1 0 22.021505H22.029708z m908.387097 0a11.010753 11.010753 0 0 1 0-22.021505h57.806452a11.010753 11.010753 0 0 1 0 22.021505H930.416805z m-368.860215 44.043011a11.010753 11.010753 0 0 1 0-22.021505h27.526882a11.010753 11.010753 0 0 1 0 22.021505h-27.526882z m-506.494624 44.043011a11.010753 11.010753 0 0 1 0-22.021505h311.246452a11.010753 11.010753 0 0 1 0 22.021505H55.061966z m390.881721 0a11.010753 11.010753 0 0 1 0-22.021505h476.248086a11.010753 11.010753 0 1 1 0 22.021505H445.943687z m-231.225807-44.043011a11.010753 11.010753 0 0 1 0-22.021505h275.268818a11.010753 11.010753 0 0 1 0 22.021505H214.71788z m440.430108 0a11.010753 11.010753 0 0 1 0-22.021505h242.236559a11.010753 11.010753 0 0 1 0 22.021505h-242.236559z" fill="#F0F2F5" p-id="54275"></path><path d="M311.061966 49.548387a19.268817 19.268817 0 1 0 0-38.537634 19.268817 19.268817 0 0 0 0 38.537634z m0 11.010753a30.27957 30.27957 0 1 1 0-60.55914 30.27957 30.27957 0 0 1 0 60.55914z" fill="#F1F1F1" p-id="54276"></path><path d="M283.535085 858.83871a19.268817 19.268817 0 1 0 0-38.537635 19.268817 19.268817 0 0 0 0 38.537635z m0 11.010752a30.27957 30.27957 0 1 1 0-60.559139 30.27957 30.27957 0 0 1 0 60.559139zM902.889923 44.043011a22.021505 22.021505 0 1 0 0-44.043011 22.021505 22.021505 0 0 0 0 44.043011z" fill="#FFFFFF" p-id="54277"></path><path d="M1053.252762 165.695312L1032.2993 214.709677l-19.571613-45.782709L957.943687 145.413505l51.734021-22.208688 22.627097-51.634925 24.036473 54.866581L1101.083472 145.413505l-47.83071 20.281807z" fill="#F0F2F5" p-id="54278"></path><path d="M892.446225 523.577806L887.133536 539.526882l-5.125505-15.376516-17.655742-5.890753 17.083183-5.692559L887.133536 495.483871l5.885248 17.655742 15.376516 5.12-15.949075 5.318193z" fill="#C0C4CC" p-id="54279"></path><path d="M667.09504 122.299367a9.50228 9.50228 0 1 1 0.659526-18.996941 9.50228 9.50228 0 0 1-0.659526 18.996941z m-0.439748 12.660958a22.175656 22.175656 0 1 0 1.539022-44.318857 22.175656 22.175656 0 0 0-1.539022 44.318857z" fill="#C0C4CC" p-id="54280"></path><path d="M670.317055 127.396944l-11.448768 33.99148-11.75792-4.854976 11.448865-33.985976z" fill="#C0C4CC" p-id="54281"></path><path d="M457.021047 203.950745c33.700663-44.643473 89.128208-71.027653 148.610852-64.775698 85.116998 8.943048 148.218729 81.525772 147.420723 165.773778-45.696004-24.916397-98.912239-47.867959-156.97968-66.731823-48.033358-15.608639-95.029536-27.001102-139.051895-34.266257z" fill="#FFFFFF" p-id="54282"></path><path d="M308.475469 244.517543a279.964903 105.334366 18 1 0 532.524891 173.027826 279.964903 105.334366 18 1 0-532.524891-173.027826Z" fill="#E1E3E6" p-id="54283"></path><path d="M445.681388 288.491898a138.597849 44.351312 18 1 0 263.628776 85.658182 138.597849 44.351312 18 1 0-263.628776-85.658182Z" fill="#F0F2F5" p-id="54284"></path><path d="M289.646052 633.233892l-71.437763-19.136688 89.434839-110.44886a9.87114 9.87114 0 1 0-15.343484-12.420129l-96.762495 119.494194c-1.24972 1.541505-1.981935 3.35828-2.158107 5.285161l-0.231226 1.139613-0.121118 0.418408a9.87114 9.87114 0 0 0 6.980817 12.089807l84.529548 22.649118-21.322322 79.580215a9.87114 9.87114 0 0 0 19.065118 5.108989l21.327828-79.580215 44.923871 12.040258a9.87114 9.87114 0 0 0 5.108989-19.070623l-44.923871-12.034753 13.361549-49.87871a9.87114 9.87114 0 0 0-19.070624-5.108989l-13.361549 49.87871zM669.539042 732.38572l-71.437764-19.142193 89.434839-110.43785a9.87114 9.87114 0 0 0-15.343484-12.425634l-96.762495 119.494194c-1.24972 1.541505-1.981935 3.35828-2.158107 5.285161l-0.231226 1.139613-0.121118 0.418408a9.87114 9.87114 0 0 0 6.980817 12.089807l84.529548 22.649118-21.322322 79.580215a9.87114 9.87114 0 0 0 19.065118 5.108989l21.327828-79.580215 44.923871 12.040258a9.87114 9.87114 0 0 0 5.108989-19.070623l-44.923871-12.040258 13.361549-49.873205a9.87114 9.87114 0 1 0-19.070624-5.108989l-13.361548 49.87871zM504.9393 752.799656l0.401892 0.110107 0.308301 0.082581a9.87114 9.87114 0 0 0 12.089807-6.980817l58.368-217.836731a9.87114 9.87114 0 0 0-6.975312-12.089807l-0.715699-0.187183-0.110107-0.033032-107.272259-28.738064c-2.543484-0.682667-6.468817 2.510452-7.960774 8.081892l-58.015656 216.509936-0.203699 0.792774a16.130753 16.130753 0 0 0-0.148645 0.534021c-1.491957 5.571441 0.308301 10.300559 2.851785 10.983226l107.266753 28.738065c0.055054 0.022022 0.055054 0.022022 0.115613 0.033032z m-3.716129-21.43243l-84.892903-22.748215 53.25901-198.766108 84.892904 22.748215-53.259011 198.766108z" fill="#FFFFFF" p-id="54285"></path><path d="M523.018956 856.344774l16.708817-2.339785-12.442151-9.716989-2.92886-19.23028-11.434667 14.297463-18.096172 2.615054 15.211355 11.985204 2.290237 16.004129L523.018956 856.344774z m-16.538151 34.237936l-4.613505-32.228473-28.022366-22.07656 34.281979-4.954838 21.399398-26.756129 5.329204 34.981161 25.500903 19.912946-33.070796 4.635527-20.804817 26.48086z" fill="#C0C4CC" p-id="54286"></path></svg>