<svg t="1596014988746" class="icon" viewBox="0 0 1024 1024" version="1.1" xmlns="http://www.w3.org/2000/svg" p-id="2875">
    <path d="M695.466667 793.6l119.466666-119.466667 29.866667 29.866667-149.333333 149.333333-4.266667-4.266666-89.6-89.6 29.866667-29.866667 64 64zM554.666667 810.666667v42.666666H213.333333v-136.533333L332.8 597.333333h311.466667l46.933333 46.933334-29.866667 29.866666-29.866666-34.133333H349.866667L256 733.866667V810.666667h298.666667z m128-448c0 106.666667-85.333333 192-192 192S298.666667 469.333333 298.666667 362.666667 384 170.666667 490.666667 170.666667 682.666667 256 682.666667 362.666667z m-42.666667 0C640 281.6 571.733333 213.333333 490.666667 213.333333S341.333333 281.6 341.333333 362.666667 409.6 512 490.666667 512 640 443.733333 640 362.666667z" p-id="2876"></path>
</svg>