<svg t="1592462817830" class="icon" viewBox="0 0 1024 1024" version="1.1" xmlns="http://www.w3.org/2000/svg" p-id="3778" width="18" height="18">
    <path d="M926.1 631.2c-19.3 0-35 15.7-35 35v66.7H253.6V130.8h127c19.3 0 35-15.7 35-35s-15.7-35-35-35h-162c-19.3 0-35 15.7-35 35v125.3H96.1c-19.3 0-35 15.7-35 35v672.1c0 19.3 15.7 35 35 35h707.5c19.3 0 35-15.7 35-35V802.9h87.5c19.3 0 35-15.7 35-35V666.2c0-19.3-15.7-35-35-35z m-157.5 262H131.1V291.1h52.5v476.8c0 19.3 15.7 35 35 35h550v90.3z" p-id="3779" />
    <path d="M473.8 249.3c-19.3 0-35 15.7-35 35v309.5c0 19.3 15.7 35 35 35h389.3c19.3 0 35-15.7 35-35V284.3c0-19.3-15.7-35-35-35s-35 15.7-35 35v274.5H508.8V284.3c0-19.3-15.7-35-35-35zM409 156.7c-19.3 0-35 15.7-35 35s15.7 35 35 35h255.9c0.6 0 1.3 0.1 1.9 0.1s1.3 0 1.9-0.1h259.2c19.3 0 35-15.7 35-35s-15.7-35-35-35H701.8v-50c0-19.3-15.7-35-35-35s-35 15.7-35 35v50H409z" p-id="3780" />
    <path d="M633.6 420.7V284.3c0-19.3-15.7-35-35-35s-35 15.7-35 35v136.4c0 19.3 15.7 35 35 35s35-15.7 35-35zM773.3 420.7V284.3c0-19.3-15.7-35-35-35s-35 15.7-35 35v136.4c0 19.3 15.7 35 35 35s35-15.7 35-35z" p-id="3781" />
</svg>