<svg t="1609686709985" class="icon" viewBox="0 0 1402 1024" version="1.1" xmlns="http://www.w3.org/2000/svg" p-id="10919" width="200" height="200">
    <path d="M244.368761 0.000461H69.095785a69.095785 69.095785 0 0 0-69.095785 69.095785v885.807969a69.095785 69.095785 0 0 0 69.095785 69.095785h175.503295a69.095785 69.095785 0 0 0 69.095786-69.095785V69.096246a69.095785 69.095785 0 0 0-69.326105-69.095785z m24.183525 954.903754a23.031928 23.031928 0 0 1-24.183525 23.031928H69.095785a24.413844 24.413844 0 0 1-24.183525-23.031928V69.096246A23.031928 23.031928 0 0 1 69.095785 44.682402h175.503295A23.031928 23.031928 0 0 1 268.552286 69.096246zM1391.819437 824.082861L917.361711 75.775505a69.095785 69.095785 0 0 0-95.121865-21.419693l-148.0953 93.970268a69.095785 69.095785 0 0 0-31.784061 49.748965V69.096246a69.095785 69.095785 0 0 0-69.095786-69.095785h-175.272975a69.095785 69.095785 0 0 0-69.095786 69.095785v885.807969a69.095785 69.095785 0 0 0 69.095786 69.095785h175.503295a69.095785 69.095785 0 0 0 69.095785-69.095785V213.045799a64.950038 64.950038 0 0 0 10.364368 30.402145l474.457726 748.307356a69.095785 69.095785 0 0 0 43.069706 30.402146 69.095785 69.095785 0 0 0 15.201073 1.612235 69.095785 69.095785 0 0 0 36.851086-10.594687l147.86498-94.200588a67.253231 67.253231 0 0 0 30.402146-43.760664 69.095785 69.095785 0 0 0-8.982452-51.130881zM598.83014 954.904215a24.413844 24.413844 0 0 1-24.183525 23.031928h-176.654891a23.031928 23.031928 0 0 1-24.183525-23.031928V69.096246a23.031928 23.031928 0 0 1 24.183525-24.183525h175.503295A23.031928 23.031928 0 0 1 598.83014 69.096246z m760.053639-88.672925a23.031928 23.031928 0 0 1-10.825006 14.970754L1197.66028 975.402631a23.031928 23.031928 0 0 1-18.195224 2.994151 23.031928 23.031928 0 0 1-15.201072-10.364368L690.957854 219.494739a24.183525 24.183525 0 0 1 7.600536-33.396296L846.193052 92.128174a25.104802 25.104802 0 0 1 12.89788-3.454789 23.031928 23.031928 0 0 1 20.498416 11.055326l474.457726 748.537675a24.183525 24.183525 0 0 1 3.22447 17.964904z" p-id="10920"></path>
    <path d="M212.35438 848.496705a55.737267 55.737267 0 1 1-55.737266-55.506947 55.737267 55.737267 0 0 1 55.737266 55.506947zM541.250319 848.496705a55.737267 55.737267 0 1 1-55.506948-55.506947 55.506948 55.506948 0 0 1 55.506948 55.506947zM1258.464571 818.555198a55.737267 55.737267 0 1 1-55.506947-55.506947 55.506948 55.506948 0 0 1 55.506947 55.506947z" p-id="10921"></path>
</svg>