<svg t="1600671197866" class="icon" viewBox="0 0 2685 1024" version="1.1" xmlns="http://www.w3.org/2000/svg" p-id="5784" width="200" height="200"><path d="M554.930327 602.733987h-16.914219a241.567433 241.567433 0 0 0-61.718905 23.721892c-28.280334 16.494362-49.513077 30.649524-49.513076 30.649524s17.693952 17.693952 30.649524 32.988725 25.251369 26.990775 25.251369 26.990775z" p-id="5785"></path><path d="M2246.562132 836.624045H689.524323l-0.539816-750.853361c0-59.259745 27.290672-73.714805 73.684815-73.714805l700.350622-11.9959 694.232714 11.186177c26.990775 0 65.557593 0.419856 81.931996 19.313399 13.585357 15.654649 7.347489 47.593733 7.377478 69.936096z" fill="#4E5B9E" p-id="5786"></path><path d="M862.805096 132.614673h100.795548v7.077581H862.805096zM1269.52608 141.521628c-19.613296 0-42.195578-0.509826-67.476937-1.859364a1506.475092 1506.475092 0 0 0-170.941572 0l-0.509826-7.047591a1513.82258 1513.82258 0 0 1 171.931234 0c97.496676 5.218216 154.357241-2.279221 154.927047-2.339201l0.929682 6.987612c-0.389867 0.059979-32.29896 4.258544-88.859628 4.258544zM862.805096 190.944736h357.147928v7.077581H862.805096zM1041.364065 238.688417h341.223371v7.077581H1041.364065zM1041.364065 302.326666h223.813501v7.077581h-223.813501zM1357.845893 295.249085h459.682881v7.077581H1357.845893zM862.805096 364.225509h349.170654v7.077581H862.805096z" fill="#FFFFFF" p-id="5787"></path><path d="M2194.709855 878.549714H738.437604v-3.53879l-0.479836-750.88335c0-54.851252 20.992825-77.253595 71.975399-77.253595l651.737239-11.9959 646.189134 11.186176h0.299898c23.272046 0 62.048792 0 78.663113 20.602958 10.556392 13.105521 9.326812 35.657812 8.247181 55.600996-0.329887 5.818011-0.629785 11.456084-0.629785 16.584332z m-1449.044721-7.07758h1441.817191V138.822551c0-5.248206 0.329887-11.006238 0.629785-16.974198 1.019651-18.653624 2.159262-39.796398-6.687714-50.742657-14.545029-17.99385-51.46241-17.99385-73.504876-17.993849l-646.129155-11.216167-651.677259 11.9959c-40.216254 0-65.077757 11.755982-65.077757 70.176014z" fill="#5E6DBE" p-id="5788"></path><path d="M0 972.237692h2685.042261v7.077581H0z" fill="#231815" p-id="5789"></path><path d="M2316.108361 975.776483H511.565149l280.524117-109.432597 1454.472866-29.719841 69.546229 139.152438z" fill="#4E5B9E" p-id="5790"></path><path d="M549.77209 606.422727s26.600908-35.357915 50.772646-50.682677 55.840914-38.596808 55.840913-38.596808l207.738996 55.241119s-26.091082-49.932933 14.575018-75.574169 144.100747-51.612359 144.100747-51.612359 66.307336-17.334075 82.201904-21.772558 126.256846-26.750857 155.586821-26.510939 267.08871-2.39918 307.065046 5.608083 260.460975 94.287773 260.460975 94.287773l56.590657 34.908068s248.405096 148.089384 265.199356 162.214556 163.534105 82.231893 197.152614 92.098521 73.354928 14.994875 93.687978 7.077581 22.102445-2.669088 28.280334-34.488212-200.661415-22.972148-200.661415-22.972148h-21.802548v-28.73018l48.313487-6.627735s89.309474-7.977273 100.795548-14.994875 83.101596-14.155162 105.204042-1.769395 39.766408 19.433358 55.690965 38.986674 32.688827 58.330063 24.741543 94.587671-3.53879 67.02709-54.821262 79.472836-13.255469 11.576043-13.255469 11.576043 38.986674 47.173876 42.735393 54.791273l7.647386 29.180026-51.252482 10.616372a159.725406 159.725406 0 0 1-53.261796 0.659774 272.096998 272.096998 0 0 1-59.979499-15.684639s-4.318524-0.539815-27.620559 2.998975c-6.567755 0.989662-14.634998 2.309211-24.531615 4.048616-44.984624 7.977273-147.639537 19.463347-198.922009 22.102446s-176.939523-31.819124-176.939523-31.819125-96.357065-36.227618-143.950798-68.976424a149.169014 149.169014 0 0 1-18.593645-14.994875 159.725406 159.725406 0 0 1-11.486074-11.995899c-1.379528-1.589457-2.699077-3.178913-3.958647-4.79836-2.36919-2.998975-4.558442-5.99795-6.597745-8.816987a174.930209 174.930209 0 0 1-23.002138-44.984624l29.329975 65.8275h-86.700366l-904.610807-9.656699-47.983599 9.656699-145.300337 65.737531s-167.942598 52.182164-192.624161 49.842964-173.760609 12.955572-186.356304 4.85834 7.527427-34.968048 18.953521-44.564768 23.9918-23.721892 46.963948-25.521277 71.465573-8.996925 71.465574-8.996925l78.483174-44.26487a76.054005 76.054005 0 0 0-5.608083-21.742569c-5.398155-14.125172 6.207878-64.807849 6.207878-64.807849s-3.748719-21.202753 16.584332-55.481037 33.888417-57.310411 33.888417-57.310411 19.553317-43.185239 20.39303-52.512052 33.168663-35.117997 33.168663-35.117996z" fill="#FFFFFF" p-id="5791"></path><path d="M448.436726 891.895153c-13.22548-7.827325-13.435408-44.024952-11.696003-54.431395l0.629785-3.928658c2.489149-15.474711 8.33715-51.822287 17.274096-73.744794a194.393557 194.393557 0 0 1 20.003163-36.917382c3.53879-5.458134 7.467448-11.516064 11.9959-19.253419a125.147225 125.147225 0 0 0 17.304085-41.985649c0.779733-2.998975 1.619446-6.387817 2.639098-10.166525 6.447796-23.9918 39.706428-46.993938 41.115947-47.9836l4.018626 5.99795c-0.329887 0.239918-32.508889 22.522302-38.29691 43.964973-1.019651 3.778708-1.859364 7.077581-2.639098 10.076556a132.134837 132.134837 0 0 1-17.99385 43.875004c-4.648411 7.797335-8.637048 13.945234-12.235817 19.463347a190.614848 190.614848 0 0 0-19.25342 35.597833c-8.637048 21.172763-14.575018 58.270083-16.824249 72.215317l-0.629785 3.958647c-1.889354 11.156187 0 42.225567 8.33715 47.203866z" p-id="5792"></path><path d="M411.369395 782.282618h38.896705v7.077581h-38.896705zM409.887902 812.99812l38.923696-18.848558 3.07095 6.342832-38.920697 18.848558z" fill="#231815" p-id="5793"></path><path d="M463.761488 811.312696l-16.104496-17.424045 5.218217-4.79836 12.175838 13.22548 23.421994-13.885254 3.59877 6.087919-28.310323 16.79426zM224.893132 1001.26777h-7.077581v-6.927632l26.301011-40.576132c0.179938 0 19.19344-15.59467 37.937033-28.460272s70.116035-11.486074 76.893718-11.276146l87.929946-30.349626 2.30921 6.687714-89.189515 30.799473h-0.659774c-0.539815 0-55.600996-2.159262-73.264959 9.986586-16.974198 11.636023-34.128335 25.401318-37.06733 27.770508l-23.9918 37.517177zM783.842085 877.230165h238.988315v7.077581h-238.988315zM571.394699 972.237692h1354.876907v7.077581H571.394699z" fill="#231815" p-id="5794"></path><path d="M909.948982 542.724498s31.819124-3.478811 53.021878 5.99795 21.802548 28.280334 59.979499 64.837839 91.04888 96.656963 174.720281 92.968224 173.280773-54.221467 190.974725-71.975399 81.302211-84.960961 107.243345-91.978562 63.638249-14.035203 83.701391-4.048616 77.79341 26.480949 122.568107 26.480948 73.08502-17.603983 83.701391-26.480948 42.405506-41.985649 42.405506-41.98565l-53.411744-33.378591c-31.039391-15.894567 0 0-112.251633-38.986675a282.323503 282.323503 0 0 0-37.517177-10.016576l-98.696266-19.733255c-122.808025-23.9918-291.560346 8.487099-388.337267 34.548191A398.053946 398.053946 0 0 0 1046.642261 466.250637z" fill="#FFC14D" p-id="5795"></path><path d="M1529.820285 669.5568a50.502738 44.414819 10.76 1 0 16.584094-87.26782 50.502738 44.414819 10.76 1 0-16.584094 87.26782Z" fill="#FFC14D" p-id="5796"></path><path d="M1561.596251 921.135159h-206.119549a16.524352 16.524352 0 0 1-16.494362-16.494362v-33.168663h239.917997v32.418919a17.274096 17.274096 0 0 1-17.304086 17.244106z m-215.59631-42.585445v26.091083a9.446771 9.446771 0 0 0 9.416782 9.416781h206.119549a10.166525 10.166525 0 0 0 10.166525-10.166525v-25.341339z" fill="#FFFFFF" p-id="5797"></path><path d="M1438.36837 413.768575l-5.458134-4.498462 42.435495-51.432421 5.458135 4.498463-42.435496 51.43242zM1451.114014 430.952702l-5.008288-5.008288 51.852277-51.852278 5.038278 5.008289-51.882267 51.852277z" p-id="5798"></path><path d="M1926.271606 578.142393l67.177039-4.85834" fill="#FFFFFF" p-id="5799"></path><path d="M1926.511524 581.681183l-0.479836-7.047591 67.177039-4.858339 0.479836 7.047591-67.177039 4.858339z" p-id="5800"></path><path d="M1951.01315 595.836345l59.229755-7.077581" fill="#FFFFFF" p-id="5801"></path><path d="M1950.629281 592.267565l59.229755-7.056588 0.836714 7.029597-59.229755 7.053589z" p-id="5802"></path><path d="M1828.145146 696.002109l31.819124 11.90593" fill="#FFFFFF" p-id="5803"></path><path d="M1826.909568 699.336969l2.471155-6.600744 31.822124 11.911928-2.471156 6.597745z" p-id="5804"></path><path d="M1825.20615 714.865661l43.005301 23.002138" fill="#FFFFFF" p-id="5805"></path><path d="M1823.562712 718.062568l3.33486-6.240866 43.005301 22.984144-3.33486 6.240867z" p-id="5806"></path><path d="M2043.23163 764.378738a100.225743 100.225743 0 0 1 21.802548 15.324762c11.785972 10.586382 35.9877 22.372353 41.265895 22.972148s26.510939 14.155162 26.510939 14.155162" fill="#FFFFFF" p-id="5807"></path><path d="M2130.921658 819.769805c-9.866628-6.267858-22.252394-13.255469-25.011452-13.585356-6.687714-0.749744-31.489237-13.315449-43.245218-23.9918a98.15645 98.15645 0 0 0-20.992825-14.754957l2.998975-6.387816a103.134749 103.134749 0 0 1 22.67225 15.894567c11.276146 10.136535 34.848089 21.59262 39.286572 22.102445 5.668063 0.629785 22.882179 11.366115 28.040416 14.664988z" p-id="5808"></path><path d="M2421.732259 799.766642c-32.29896 0-92.21848-16.344414-106.913457-22.192414-17.034178-6.777683-150.248645-75.514189-155.946698-78.423196l3.238893-6.297847c1.379528 0.719754 138.552643 71.495563 155.286924 78.153287 19.16345 7.617396 96.566994 27.350652 116.600146 20.243081 24.381666-8.637048 38.386879-16.884229 37.667126-33.52854-0.629785-14.245131-0.359877-22.402343-0.149949-28.940108 0-2.998975 0.179938-5.518114 0.179938-8.307161h7.077581c0 2.998975 0 5.578093-0.179938 8.517089-0.209928 6.777683-0.479836 14.455059 0 28.430283 1.019651 23.182076-20.36304 32.718817-42.375516 40.486162a45.824337 45.824337 0 0 1-14.48505 1.859364z" fill="#231815" p-id="5809"></path><path d="M2253.159877 705.41889l-1.409518-6.927632c7.077581-1.439508 42.855352-8.42712 52.062205-5.99795l-1.919344 6.807673c-5.848001-1.559467-32.988725 2.938995-48.733343 6.117909zM2330.383482 937.419593a298.847855 298.847855 0 0 1-30.169688-28.850139c-13.585357-15.234793-33.49855-34.188315-33.708478-34.368253l4.888329-5.128247c0.209928 0.179938 20.30306 19.313399 34.098345 34.788109a287.151852 287.151852 0 0 0 29.359965 28.070406z" fill="#231815" p-id="5810"></path><path d="M2311.879807 909.589105l-2.159262-6.747693c0.179938 0 18.563655-5.99795 32.988724-9.956597a51.52239 51.52239 0 0 1 28.610221 0l-2.279221 6.687714a45.314512 45.314512 0 0 0-24.441645 0c-14.275121 4.108596-32.538878 9.926607-32.718817 10.016576zM1802.353961 898.043052l-112.221643-3.418832 0.209928-7.077581 112.221643 3.418832-0.209928 7.077581zM351.239947 481.48543H285.532406l37.607146-53.561693-45.824337 4.048616-0.629785-7.047591 60.969161-5.368165-38.536829 54.851252h52.122185v7.077581z" fill="#231815" p-id="5811"></path><path d="M363.265837 609.241763l-15.084844-11.666013-20.842876-35.92772 6.117909-3.53879 20.482999 35.297935 13.585356 10.196515-4.258544 5.638073z" p-id="5812"></path><path d="M430.802753 380.120076h-61.718905l20.692928-41.385854c-9.506751 1.289559-22.642261 2.159262-26.990775-2.099283l5.008288-5.008288c2.099282 1.799385 14.994875 1.349539 27.53059-0.959672l6.957622-1.259569-21.832538 43.635085h50.262821zM313.392883 293.509679l-30.799473-6.567755 17.903881-23.511964h-16.434383v-7.047591h30.709504l-19.793235 25.971123 19.883204 4.228555-1.469498 6.927632z" fill="#231815" p-id="5813"></path><path d="M2370.329829 890.995461c0-4.138585 22.402343-38.3269 45.974286-44.204891s57.730268 8.247181 81.302211 0 49.513077-22.402343 51.882267-43.605096-16.494362-50.682677-10.616372-65.437634-4.708391-21.202753 17.693953-15.59467 36.527515 58.62996 36.527515 58.629961 17.693952 38.986674 4.70839 65.977449-33.378591 47.113897-50.682676 53.471723c-14.305111 5.278196-60.669263 5.99795-60.669264 5.99795z" fill="#FFC14D" p-id="5814"></path><path d="M2465.787202 906.200264s8.996925 0.779733 3.53879 14.994874-14.125172 20.782896-10.706341 37.667126 16.644311 31.09937 16.644312 31.09937l16.584331 11.006238s72.965061 0.779733 79.442847-6.867652-11.636023-52.72198-21.802548-55.990863S2499.795578 905.690438 2499.795578 905.690438z" fill="#FFC14D" p-id="5815"></path><path d="M2466.836843 906.230253c-40.186264 0-82.981637-4.588432-85.710704-4.888329l-80.222581-19.343388a278.904671 278.904671 0 0 1-28.910118-8.786997l-86.970274-31.999063 2.42917-6.657724 87.120222 31.999063a251.014204 251.014204 0 0 0 28.130385 8.547078l79.802724 19.313399c0.569805 0 99.236081 10.676351 137.113135 0s44.594758-25.401318 56.500688-68.676527c11.156187-40.456172-5.99795-75.544179-22.432332-101.635261-12.355777-19.823224-42.795373-31.879104-65.017777-40.69609l-3.418832-1.349539c-19.673276-7.827325-41.985649-7.497437-66.727193 0.869703a272.636814 272.636814 0 0 1-41.985649 10.856289l-1.079631-6.987611a272.576834 272.576834 0 0 0 40.75607-10.556392c26.271021-8.996925 50.35279-9.206853 71.615522-0.749744l3.418831 1.349539c23.122097 9.176863 54.791273 21.712579 68.436609 43.515126 9.986587 16.044516 36.617484 58.62996 23.242056 107.243345-12.235818 44.384829-20.662937 62.22873-61.419008 73.624835-13.555367 3.778708-33.768458 5.008288-54.671313 5.008288z" fill="#231815" p-id="5816"></path><path d="M2214.952936 1023.340226a117.709767 117.709767 0 0 1-13.585357-0.689765c-3.718729-0.449846-9.656699-1.019651-17.394054-1.769395-63.758208-6.297847-233.140313-23.002138-302.896471-62.978474-87.869966-50.592708-107.273334-85.860653-111.112023-95.427383a247.985239 247.985239 0 0 1-9.896617-31.489237l6.897643-1.589457a244.776336 244.776336 0 0 0 9.53674 30.439596c2.609108 6.447796 19.973173 41.205916 107.963098 91.948572 68.346639 39.346551 242.677054 56.500688 299.897496 62.168751 7.797335 0.749744 13.765295 1.349539 17.544004 1.799385 32.448909 3.748719 102.355015-9.926607 147.189691-25.101421 39.586469-13.375428 43.845014-8.786997 45.674389-6.807673a5.218216 5.218216 0 0 1 0.809723 1.109621l39.676439 10.226505c38.206941 9.806648 120.588783-4.408493 131.954898-10.79631-2.759057-7.797335-24.411656-39.436521-38.446859-56.770596a86.19054 86.19054 0 0 0-26.091082-21.62261l2.998975-6.357827a92.338439 92.338439 0 0 1 28.520251 23.541954c6.837663 8.42712 40.276234 53.231806 40.276234 62.3187a4.948309 4.948309 0 0 1-2.189252 3.928657c-10.496412 8.127222-98.966174 22.822199-138.85254 12.595695l-45.704379-11.755982 0.689765-1.709416c-2.998975-0.299897-11.9959 0.299897-37.12731 8.816986-39.616459 13.585357-99.146112 25.971123-136.333402 25.971124z" fill="#231815" p-id="5817"></path><path d="M573.763889 761.559701c-9.896617-4.498462-23.9918-15.474711-21.712578-39.766408s8.39713-40.6661 7.977273-55.271108-2.849026-37.997013-8.277171-48.163538a23.541953 23.541953 0 0 1-0.749744-19.913194 80.972324 80.972324 0 0 1 14.305111-18.983511c7.977273-7.077581 70.745819-53.471724 80.972324-57.910207l10.166525-4.408493s33.58852-54.371416 68.046742-76.473861 52.152175-29.180026 66.307336-29.180027 29.180026 0.899692 38.027003 14.605008 10.166525 16.79426 11.486074 25.19139 0 69.846127 0 69.846127 1.769395-43.785034 14.575018-52.182165 59.979499-14.994875 77.343564-20.752906 63.668238-10.166525 92.398419-11.9959l28.73018-1.769395s-168.422434 57.910206-173.280773 70.265983-13.255469 31.399268-14.575019 42.885342-1.319549 24.741543-1.319549 24.741543L675.369161 744.345585s-30.739493 22.252394-39.706429 22.192415c-43.845014-0.179938-43.335188 3.448821-61.898843-4.978299z" fill="#FFC14D" p-id="5818"></path><path d="M808.3737 436.020969s8.457109-6.387817 11.096208 5.098258-26.510939 35.357915-28.280334 40.6661-2.789047 4.858339 1.559467 7.19754 15.62466 3.988637 18.953522 16.644311 4.648411 18.293747-1.649437 22.972148-9.866628 5.518114-18.863552 4.79836-32.268971-5.128247-34.278284-5.128247-23.9918 0.989662-23.9918 0.989662-20.662937 7.377478-20.33305 9.326812a75.994025 75.994025 0 0 1 17.544004-47.593733c19.823224-24.531615 14.994875-24.351677 30.529565-32.988724s47.713692-21.982486 47.713691-21.982487z" fill="#FFB01F" p-id="5819"></path><path d="M707.218275 560.50842c0-0.839713-3.59877-20.842876 8.996925-50.35279 13.315449-30.979411 30.889442-50.982574 55.391067-62.498638a348.091024 348.091024 0 0 1 42.315537-17.274096l2.099283 6.747694a348.450901 348.450901 0 0 0-41.385855 16.884229c-22.852189 10.886279-39.346551 29.599883-51.882267 58.929858-11.755982 27.410631-8.667038 46.124235-8.637048 46.304173z" fill="#FFFFFF" p-id="5820"></path><path d="M715.435466 535.37701l-5.99795-3.928657c8.517089-12.805623 29.299985-25.13141 30.169689-25.641236l3.56878 5.99795c0.02999 0.209928-20.153112 12.085869-27.740519 23.571943z" fill="#FFFFFF" p-id="5821"></path><path d="M713.78603 544.763801l-5.788022-4.078606a43.455147 43.455147 0 0 1 23.9918-14.994874 19.463347 19.463347 0 0 0 8.217192-4.168576c3.958647-2.998975 7.407468-5.248206 16.614321-3.898667l13.975223 2.129272-1.079631 7.017602-13.975223-2.159262c-6.777683-1.049641-8.307161 0.239918-11.126197 2.459159a26.151062 26.151062 0 0 1-10.706341 5.578094 37.547166 37.547166 0 0 0-20.123122 12.115858z" fill="#FFFFFF" p-id="5822"></path><path d="M263.939786 1023.97001c-4.498462 0-8.157212 0-10.826299-0.299897-27.380641-2.279221-30.259657-3.418831-34.578182-13.465398a9.836638 9.836638 0 0 1 0.359877-7.977273c5.99795-14.515039 36.737443-45.284522 56.740607-53.711642a95.127486 95.127486 0 0 1 35.987699-6.837663 32.988725 32.988725 0 0 0 10.946259-1.319549c3.958647-1.979323 11.486074-2.3392 20.243081-2.759057 8.157212-0.419856 18.323737-0.899692 22.042466-2.998975 8.247181-4.73838 110.812125-62.498638 110.812124-62.498638 1.079631-0.599795 105.713867-58.569981 140.951823-88.919607s273.476527-224.083409 275.905697-226.032743l4.468472 5.488124c-2.39918 1.949334-240.367843 195.293249-275.725757 225.882794s-137.862879 87.4801-142.211393 89.729331-102.474974 57.730268-110.722155 62.468648c-5.188227 2.998975-14.994875 3.418831-25.22138 3.928658-6.927632 0.329887-14.784947 0.749744-17.424044 2.039303a35.028028 35.028028 0 0 1-13.825275 2.069292 89.549392 89.549392 0 0 0-33.49855 6.267858c-22.522302 9.506751-54.401406 45.584419-53.471724 52.092195 2.998975 6.687714 3.148924 7.347489 28.82015 9.506751 27.650549 2.219241 175.320076-9.326812 176.789573-9.416782l89.969249-16.464372c0.449846-0.209928 101.155425-36.557505 139.482326-52.841939s156.966349-78.213267 158.165939-78.843052l3.268883 6.267858c-1.19959 0.629785-119.958998 62.738556-158.645776 79.112959s-139.422346 52.72198-140.441997 53.111847l-90.9889 16.644311c-5.728042 0.479836-124.127574 9.776658-167.372793 9.776658z" fill="#231815" p-id="5823"></path><path d="M511.775077 778.50391l-0.449846-7.047591 200.931322-12.955572 0.479836 7.047591-200.961312 12.955572zM688.62463 849.09978l-177.989164-48.313486 1.829375-6.807673 177.989164 48.313486-1.829375 6.807673z" fill="#231815" p-id="5824"></path></svg>