<svg t="1596959494140" class="icon" viewBox="0 0 1582 1024" version="1.1" xmlns="http://www.w3.org/2000/svg" p-id="20543" width="20" height="20"><path d="M1375.488 495.616C1494.109091 523.077818 1582.545455 629.387636 1582.545455 756.363636 1582.545455 904.168727 1462.714182 1024 1314.909091 1024h-1047.272727C119.831273 1024 0 904.168727 0 756.363636c0-128.023273 89.879273-235.054545 209.989818-261.422545-0.349091-5.888-0.535273-11.869091-0.535273-17.850182C209.454545 316.416 339.688727 186.181818 500.363636 186.181818c65.256727 0 125.486545 21.480727 174.010182 57.762909C726.690909 101.562182 863.488 0 1024 0c205.661091 0 372.363636 166.702545 372.363636 372.363636 0 43.194182-7.354182 84.666182-20.875636 123.252364z" p-id="20544" fill="#bfbfbf"></path></svg>