<svg t="1597938544249" class="icon" viewBox="0 0 1024 1024" version="1.1" xmlns="http://www.w3.org/2000/svg" p-id="12080" width="200" height="200">
    <path d="M988.9296 352H32.1296c-19.2 0-32-12.8-32-32s12.8-32 32-32h886.4l-233.6-233.6c-12.8-12.8-12.8-32 0-44.8 12.8-12.8 32-12.8 44.8 0l284.8 281.6c9.6 9.6 12.8 25.6 6.4 38.4-6.4 12.8-19.2 22.4-32 22.4zM316.9296 1024c-9.6 0-16-3.2-22.4-9.6L9.7296 732.8c-9.6-9.6-12.8-25.6-6.4-38.4 6.4-12.8 19.2-22.4 32-22.4H992.1296c19.2 0 32 12.8 32 32s-12.8 32-32 32H105.7296l233.6 233.6c12.8 12.8 12.8 32 0 44.8-6.4 6.4-12.8 9.6-22.4 9.6z" p-id="12081"></path>
</svg>