<svg t="1600502833207" class="icon" viewBox="0 0 1024 1024" version="1.1" xmlns="http://www.w3.org/2000/svg" p-id="7304" width="200" height="200"><path d="M388.78 410.37l-26.76 2.32 199.52 155.72 15.56 12.15 12.14-15.57 217.32-278.75c6.7-8.59 5.16-20.99-3.43-27.69-8.59-6.7-20.99-5.17-27.68 3.43L558.11 540.73l27.69-3.42-199.51-155.73-14.46-11.29-12.31 13.6-140.94 155.73c-7.31 8.08-6.69 20.55 1.39 27.86 8.08 7.31 20.55 6.69 27.86-1.38l140.95-155.73z m0 0" p-id="7305" fill="#2c2c2c"></path><path d="M116.87 168.56h707.18c34.37 0 62.28 27.94 62.28 62.36v478.34l20.8-20.8H199.94c-34.38 0-62.28-27.94-62.28-62.35V147.76l-20.79 20.8z m0-41.59h-20.8v499.14c0 57.37 46.52 103.95 103.87 103.95h727.98V230.92c0-57.37-46.52-103.95-103.87-103.95H116.87z m0 0" p-id="7306" fill="#2c2c2c"></path><path d="M420.09 711.47L357.7 857.04c-4.52 10.56 0.37 22.78 10.92 27.31 10.56 4.53 22.78-0.36 27.31-10.92l62.39-145.57c4.53-10.55-0.37-22.78-10.92-27.3-10.56-4.54-22.78 0.35-27.31 10.91z m0 0M578.77 784.42L651.55 878c7.05 9.07 20.12 10.7 29.18 3.65 9.07-7.05 10.7-20.12 3.65-29.19l-72.79-93.58c-7.05-9.07-20.12-10.7-29.18-3.65-9.06 7.06-10.7 20.13-3.64 29.19z m0 0" p-id="7307" fill="#2c2c2c"></path><path d="M272.84 896.43h499.22c11.49 0 20.8-9.31 20.8-20.8s-9.31-20.8-20.8-20.8H272.84c-11.48 0-20.8 9.31-20.8 20.8s9.32 20.8 20.8 20.8z m0 0" p-id="7308" fill="#2c2c2c"></path></svg>