<svg t="1594090714013" class="icon" viewBox="0 0 1024 1024" version="1.1" xmlns="http://www.w3.org/2000/svg" p-id="5742" width="25" height="25">
    <path d="M782.08 853.333333H241.92a109.226667 109.226667 0 0 1-111.36-106.666666v-85.333334a21.333333 21.333333 0 1 1 42.666667 0v85.333334a66.773333 66.773333 0 0 0 68.693333 64h540.16a66.773333 66.773333 0 0 0 68.693333-64v-85.333334a21.333333 21.333333 0 1 1 42.666667 0v85.333334a109.226667 109.226667 0 0 1-111.36 106.666666z" fill="#707070" p-id="5743" />
    <path d="M512 701.013333a21.333333 21.333333 0 0 1-14.08-5.12l-193.92-170.666666a21.333333 21.333333 0 0 1 28.16-32L490.666667 632.746667V194.986667a21.333333 21.333333 0 0 1 42.666666 0v484.693333a21.333333 21.333333 0 0 1-21.333333 21.333333z" fill="#707070" p-id="5744" />
    <path d="M512 701.013333a21.333333 21.333333 0 0 1-16-7.253333 21.333333 21.333333 0 0 1 1.92-30.08l193.92-169.6a21.333333 21.333333 0 0 1 28.16 32l-193.92 170.666667a21.333333 21.333333 0 0 1-14.08 4.266666z" fill="#707070" p-id="5745" />
</svg>