<svg t="1598025670235" class="icon" viewBox="0 0 1227 1024" version="1.1" xmlns="http://www.w3.org/2000/svg" p-id="2232" width="200" height="200">
    <path d="M1010.30418406 992H206.06243094A172.40203688 172.40203688 0 0 1 33.88620781 819.7839275V206.24839531c-7.1729025-42.62563687 6.77440781-83.68386094 36.70135032-107.50055343a100.95195938 100.95195938 0 0 1 52.09652437-20.93424844 23.24551687 23.24551687 0 0 1 20.48262094 8.32853625l410.58224531 498.19791937 0.23909625 0.27894563c0.86340469 0.98295375 8.06287312 8.82001312 16.08589781 8.89971281h0.11954813c7.49169844 0 15.2623425-7.13305312 20.456055-13.123755q0.43834406-0.50475938 0.88997156-0.96967031l339.90259031-349.34691188a23.24950219 23.24950219 0 1 1 33.32742938 32.42417531L625.278725 611.3845475c-21.25304437 24.22847062-42.50608781 28.93070625-56.53309781 28.59862688-29.22293531-0.70400719-48.05844562-22.58135906-51.02058844-26.22094313L116.10892156 126.44321469a50.94088969 50.94088969 0 0 0-16.59065719 8.66061562c-16.97586937 13.52224969-24.48085031 38.38831125-19.57936687 64.86163313a23.24551687 23.24551687 0 0 1 0.38521125 4.23732562v615.58113844a125.85787031 125.85787031 0 0 0 125.72503875 125.72503875h804.22847062a125.85787031 125.85787031 0 0 0 125.72503875-125.72503875V204.2160725A125.85787031 125.85787031 0 0 0 1010.27761813 78.49103375H520.83329656a23.24551687 23.24551687 0 0 1 0-46.49103375h489.45760406a172.40203688 172.40203688 0 0 1 172.21607344 172.2160725v615.567855A172.40203688 172.40203688 0 0 1 1010.30418406 992z" p-id="2233"></path>
</svg>