<svg t="1599439946586" class="icon" viewBox="0 0 1024 1024" version="1.1" xmlns="http://www.w3.org/2000/svg" p-id="5025" width="200" height="200"><path d="M382.7 459.6c0 21.3-21.2 35.4-35.3 35.4-21.2 0-35.3-14.2-35.3-35.4v-63.8c0-21.2 14.1-35.4 35.3-35.4s35.3 14.2 35.3 35.4v63.8z m324.4 0c0 21.3-14.1 35.4-35.3 35.4-21.2 0-35.3-14.2-35.3-35.4v-63.8c0-21.2 14.1-35.4 35.3-35.4 21.2 0 35.3 14.2 35.3 35.4v63.8zM368.6 693.5c-7 0-14.1 0-21.2-7.1-14.1-14.2-14.1-35.4 0-49.6 35.3-42.5 98.7-70.9 162.2-70.9 63.5 0 126.9 28.3 169.2 70.9 14.1 14.2 14.1 35.4 0 49.6-14.1 14.2-35.3 14.2-49.4 0-63.5-70.9-176.3-63.8-239.7 0-7 7.1-14 7.1-21.1 7.1z" p-id="5026"></path><path d="M784.7 943H241c-96.4 0-174.8-78.4-174.8-174.8V250.4C66.3 154 144.7 75.6 241 75.6h543.7c96.4 0 174.8 78.4 174.8 174.8v517.8c0 96.4-78.4 174.8-174.8 174.8zM241 140.3c-60.7 0-110 49.4-110 110v517.8c0 60.7 49.4 110 110 110h543.7c60.7 0 110-49.4 110-110V250.4c0-60.7-49.4-110-110-110H241z" p-id="5027"></path></svg>