<svg t="1597156529189" class="icon" viewBox="0 0 1024 1024" version="1.1" xmlns="http://www.w3.org/2000/svg" p-id="2103" width="20" height="20">
    <path d="M909.965827 546.630728c0.085958-0.115634 0.164752-0.23536 0.249687-0.350994 0.469698-0.648776 0.931209-1.303692 1.3743-1.971911 0.141216-0.211824 0.273223-0.427742 0.410346-0.64059 0.375553-0.582261 0.747014-1.166569 1.102101-1.763157 0.155543-0.260943 0.301875-0.527003 0.453325-0.789992 0.322341-0.560772 0.641613-1.12359 0.946558-1.696642 0.148379-0.278339 0.287549-0.560772 0.430812-0.841158 0.291642-0.569982 0.579191-1.14201 0.852414-1.723248 0.127913-0.273223 0.24764-0.548492 0.37146-0.822738 0.270153-0.599657 0.536212-1.200338 0.786922-1.810229 0.104377-0.25378 0.200568-0.509606 0.300852-0.76441 0.25071-0.635473 0.49528-1.272993 0.724501-1.918699 0.082888-0.233314 0.158612-0.468674 0.237407-0.704035 0.227174-0.668219 0.447185-1.338485 0.650823-2.016937 0.065492-0.220011 0.124843-0.441045 0.187265-0.661056 0.197498-0.689708 0.38988-1.382487 0.562818-2.082428 0.055259-0.224104 0.102331-0.448208 0.155543-0.672312 0.162706-0.692778 0.319272-1.38658 0.457418-2.088568 0.050142-0.25378 0.090051-0.508583 0.1361-0.763386 0.121773-0.669242 0.2415-1.339508 0.340761-2.016937 0.047072-0.322341 0.080841-0.64673 0.122797-0.970094 0.078795-0.60989 0.159636-1.217734 0.220011-1.832741 0.046049-0.466628 0.071631-0.934279 0.106424-1.401929 0.034792-0.478907 0.079818-0.954745 0.103354-1.437745 0.094144-1.923816 0.094144-3.851725 0-5.776563-0.023536-0.481977-0.068562-0.958838-0.103354-1.438769-0.034792-0.466628-0.060375-0.934279-0.106424-1.400906-0.059352-0.61603-0.141216-1.224898-0.220011-1.834788-0.041956-0.323365-0.075725-0.64673-0.122797-0.969071-0.099261-0.677429-0.218988-1.348718-0.340761-2.018983-0.046049-0.25378-0.085958-0.508583-0.1361-0.762363-0.138146-0.701988-0.294712-1.396813-0.457418-2.090615-0.052189-0.224104-0.099261-0.448208-0.154519-0.671289-0.172939-0.700965-0.364297-1.393743-0.562818-2.084475-0.063445-0.220011-0.121773-0.440022-0.187265-0.660032-0.203638-0.678452-0.423649-1.349741-0.650823-2.01796-0.079818-0.234337-0.154519-0.469698-0.237407-0.703011-0.229221-0.645706-0.473791-1.284249-0.724501-1.918699-0.100284-0.254803-0.196475-0.509606-0.300852-0.763386-0.25071-0.60989-0.51677-1.212618-0.787946-1.812275-0.12382-0.273223-0.242524-0.548492-0.370437-0.820692-0.273223-0.581238-0.561795-1.154289-0.853437-1.725294-0.143263-0.279363-0.281409-0.560772-0.429789-0.839111-0.304945-0.573051-0.624217-1.136893-0.947582-1.697665-0.151449-0.26299-0.297782-0.528026-0.453325-0.788969-0.355087-0.596588-0.726547-1.180895-1.102101-1.763157-0.138146-0.212848-0.270153-0.428765-0.410346-0.64059-0.443092-0.668219-0.904603-1.323135-1.3743-1.971911-0.084934-0.116657-0.164752-0.23536-0.249687-0.350994-1.858324-2.524496-3.91517-4.892427-6.147-7.085372L670.293189 236.758262c-22.841218-22.841218-59.844993-22.841218-82.687234 0s-22.841218 59.844993 0 82.687234l134.080741 134.080741L161.15333 453.526237c-32.321126 0-58.474786 26.182312-58.474786 58.474786s26.15366 58.474786 58.474786 58.474786l560.53439 0L587.606978 704.554504c-22.841218 22.841218-22.841218 59.844993 0 82.687234 11.42112 11.42112 26.381857 17.131169 41.343617 17.131169s29.922497-5.710049 41.343617-17.131169l233.526661-233.526661C906.051681 551.523155 908.107503 549.155225 909.965827 546.630728z" p-id="2104"></path>
</svg>