<svg t="1599135906143" class="icon" viewBox="0 0 1346 1024" version="1.1" xmlns="http://www.w3.org/2000/svg" p-id="12167" width="20" height="20">
    <path d="M537.640551 1022.752285H511.5633c-4.117461 0-7.611064-0.499086-11.229439-1.996345l-4.616547-1.497258C15.346899 835.220665 75.611551 281.734129 76.110637 276.11941l2.495431-22.458876C80.727184 238.313635 93.578652 225.961253 109.424638 225.462166l22.458876-0.998172c9.233094-0.499086 58.767394-6.612891 66.378457-73.615206l1.996345-16.345072c1.497258-11.728524 9.233094-21.95979 20.462532-26.077251l15.346899-5.614719c194.144511-71.49409 246.798099-90.95845 261.645912-96.573169l0.998172-0.499086c5.115633-3.119288 10.730352-5.115633 16.844158-5.115633h8.234921c12.726697 0 12.726697 0 289.220422 101.688802l15.346899 5.614719c11.229438 4.117461 19.46436 14.348727 20.961618 26.576337l1.996344 16.345072c7.611064 67.002315 56.771049 73.11612 66.378458 73.615206l22.458876 0.998172c15.845985 0.499086 28.572682 12.726697 30.693798 28.073596l2.495431 22.458877c0.499086 5.614719 60.763738 559.600341-419.606677 743.139271l-4.616547 1.497259c-3.24406 1.62203-7.361521 2.121116-11.478981 2.121116z m-19.963446-63.883027H531.526745C710.324357 889.870598 828.483002 756.988912 882.633849 563.842573c37.306689-133.879859 29.695626-251.913732 27.57451-275.994638-39.80212-3.618375-110.42281-33.189229-122.650421-126.268795C602.52175 93.578652 537.640551 69.622517 522.792738 65.005971h-0.499086l-0.499086 0.499086c-10.231266 4.117461-56.771049 20.961618-260.64774 96.074083C248.919215 253.660534 180.918728 284.22956 138.496406 287.847935c-1.996345 23.956135-9.73218 142.11478 27.574509 276.493725 54.649933 193.146338 172.808578 326.028025 351.60619 394.527598z m0 0" p-id="12168"></path>
    <path d="M673.017668 723.300597c-4.117461 0-8.734008-0.998172-12.227611-3.119288l-135.377117-71.494091-135.377117 71.494091c-9.233094 4.616547-19.963446 4.117461-28.073596-1.996345-8.234921-6.113805-12.227611-15.845985-10.730352-26.077251l26.077251-151.223102-110.422809-106.804436c-7.111978-7.111978-9.73218-17.84233-6.612892-27.075423 3.119288-9.73218 11.229438-16.844157 21.460704-17.84233l151.722189-21.95979 68.000487-137.498233c4.616547-9.233094 13.849641-14.847813 24.080907-14.847813 10.231266 0 19.46436 5.614719 23.956135 14.847813l68.000487 137.498233 151.84696 21.95979c10.231266 1.497258 18.341416 8.734008 21.460704 17.84233 3.119288 9.73218 0.499086 20.462532-6.612891 27.075423l-110.921896 106.804436L699.094919 692.107713c1.497258 10.231266-2.495431 19.963446-10.730352 26.077251-4.616547 2.994517-9.73218 5.115633-15.346899 5.115633zM524.913854 591.916169c4.117461 0 8.734008 0.998172 12.227611 3.119289l100.191543 52.653588-18.965273-111.920068c-1.497258-8.734008 1.497258-17.343244 7.611064-23.457049l81.22627-79.229926-111.920068-16.345071c-8.734008-0.998172-16.345071-6.612891-19.963446-14.348727l-50.657244-101.189716-50.033386 101.688802c-4.117461 7.611064-11.229438 13.225783-19.963446 14.348727l-111.920068 16.345071 81.22627 79.229926c6.113805 6.113805 9.233094 14.847813 7.611064 23.457049L412.993786 648.188132l100.191544-52.653588c2.994517-2.620202 7.611064-3.618375 11.728524-3.618375z m0 0" p-id="12169"></path>
</svg>