<svg t="1609840217540" class="icon" viewBox="0 0 1024 1024" version="1.1" xmlns="http://www.w3.org/2000/svg" p-id="2745" width="200" height="200">
    <path d="M284.444 910.222h341.334v56.89H284.444z" fill="#73777A" p-id="2746"></path>
    <path d="M568.889 284.444v-56.888c204.8 0 398.222 164.977 398.222 369.777S802.133 967.111 597.333 967.111v-56.889c170.667 0 312.89-142.222 312.89-312.889S739.555 284.444 568.888 284.444z m0-56.888c204.8 0 398.222 164.977 398.222 369.777S802.133 967.111 597.333 967.111v-56.889c170.667 0 312.89-142.222 312.89-312.889S739.555 284.444 568.888 284.444v-56.888z m-455.111 0h455.11v56.888h-455.11z" fill="#73777A" p-id="2747"></path>
    <path d="M95.403 213.732L296.562 414.89l-40.278 40.22L55.182 253.952z" fill="#73777A" p-id="2748"></path>
    <path d="M297.13 90.226L95.973 291.27l-40.22-40.163L256.852 50.062z" fill="#73777A" p-id="2749"></path>
</svg>