<svg t="1599439891107" class="icon" viewBox="0 0 1024 1024" version="1.1" xmlns="http://www.w3.org/2000/svg" p-id="4235" width="200" height="200"><path d="M512 0a512 512 0 1 0 512 512A512 512 0 0 0 512 0z m308.360533 368.64l-354.304 361.813333a34.133333 34.133333 0 0 1-4.164266 5.12 35.157333 35.157333 0 0 1-50.312534 0L235.656533 557.2608a36.522667 36.522667 0 0 1 0-51.063467 35.157333 35.157333 0 0 1 50.244267 0l150.186667 152.576 333.824-341.333333a35.157333 35.157333 0 0 1 50.312533 0 36.522667 36.522667 0 0 1 0 51.063467z m0 0" fill="#54B4FE" p-id="4236"></path></svg>