<svg t="1597807930557" class="icon" viewBox="0 0 1024 1024" version="1.1" xmlns="http://www.w3.org/2000/svg" p-id="3248" width="20" height="20">
    <path d="M525.604 24c143.422 0 240.23 80.851 240.23 215.593 0 16.519-13.39 29.91-29.908 29.91-16.28 0-29.524-13.012-29.899-29.204l-0.008-0.706c0-99.08-67.883-155.774-180.415-155.774-104.406 0-189.235 83.751-190.921 187.699l-0.026 3.156v105.939h434.806C852.05 380.614 919 447.569 919 530.162v285.291C919 898.045 852.05 965 769.463 965H249.537C166.95 965 100 898.045 100 815.452v-285.29c0-82.594 66.95-149.548 149.537-149.548l25.305-0.001v-105.94C274.843 136.228 387.117 24 525.605 24z m243.86 416.433H249.536c-49.057 0-88.918 39.373-89.71 88.245l-0.012 1.483v285.291c0 49.06 39.37 88.925 88.238 89.717l1.484 0.012h519.926c49.057 0 88.918-39.373 89.71-88.245l0.012-1.484v-285.29c0-49.06-39.37-88.925-88.238-89.717l-1.484-0.012zM509.506 583.078c16.514 0 29.9 13.387 29.9 29.9v161.07c0 16.514-13.386 29.9-29.9 29.9h-0.014c-16.514 0-29.9-13.386-29.9-29.9v-161.07c0-16.513 13.386-29.9 29.9-29.9h0.014z" fill="#333333" p-id="3249"></path>
</svg>