<svg t="1600482033382" class="icon" viewBox="0 0 1024 1024" version="1.1" xmlns="http://www.w3.org/2000/svg" p-id="3279" width="200" height="200"><path d="M872.587636 194.606545l-86.481454-86.481454a114.269091 114.269091 0 0 0-81.314909-33.698909H303.941818a83.083636 83.083636 0 0 0-82.990545 82.990545v106.309818h39.330909V157.463273a43.706182 43.706182 0 0 1 43.659636-43.659637h393.355637v169.611637h169.611636v581.818182a43.706182 43.706182 0 0 1-43.659636 43.706181H303.941818a43.752727 43.752727 0 0 1-43.659636-43.706181v-56.087273h-39.330909v56.087273a83.083636 83.083636 0 0 0 82.990545 83.03709h519.307637a83.083636 83.083636 0 0 0 82.990545-83.03709V275.968a114.362182 114.362182 0 0 0-33.652364-81.361455z m-135.959272 49.477819V121.064727a74.984727 74.984727 0 0 1 21.643636 14.894546l86.481455 86.481454a76.148364 76.148364 0 0 1 14.894545 21.643637z" fill="#3C81F0" p-id="3280"></path><path d="M617.285818 637.207273h195.118546v55.808h-195.118546z" fill="#3C81F0" p-id="3281"></path><path d="M617.285818 413.975273h195.118546v56.273454h-195.118546z" fill="#3C81F0" p-id="3282"></path><path d="M617.285818 525.591273h195.118546v55.808h-195.118546z" fill="#3C81F0" p-id="3283"></path><path d="M562.827636 314.833455H116.363636v446.464h446.464z m-127.348363 352.86109h-39.191273l-30.440727-76.986181-25.925818-77.312-25.50691 78.010181-29.742545 76.288h-39.191273L155.554909 422.772364h51.805091l57.716364 176.872727 59.485091-176.872727h30.114909l61.253818 176.872727 55.854545-176.872727h51.805091z" fill="#3C81F0" p-id="3284"></path></svg>